<?xml version="1.0" encoding="UTF-8" standalone="no"?>
<!-- Created with Inkscape (http://www.inkscape.org/) -->

<svg
   width="210mm"
   height="297mm"
   viewBox="0 0 210 297"
   version="1.1"
   id="svg1"
   xml:space="preserve"
   inkscape:version="1.4.3 (0d15f75, 2025-12-25)"
   sodipodi:docname="Almond.svg"
   xmlns:inkscape="http://www.inkscape.org/namespaces/inkscape"
   xmlns:sodipodi="http://sodipodi.sourceforge.net/DTD/sodipodi-0.dtd"
   xmlns="http://www.w3.org/2000/svg"
   xmlns:svg="http://www.w3.org/2000/svg"><sodipodi:namedview
     id="namedview1"
     pagecolor="#ffffff"
     bordercolor="#000000"
     borderopacity="0.25"
     inkscape:showpageshadow="2"
     inkscape:pageopacity="0.0"
     inkscape:pagecheckerboard="0"
     inkscape:deskcolor="#d1d1d1"
     inkscape:document-units="mm"
     inkscape:zoom="0.50835204"
     inkscape:cx="425.88597"
     inkscape:cy="516.37444"
     inkscape:window-width="1920"
     inkscape:window-height="1009"
     inkscape:window-x="-8"
     inkscape:window-y="-8"
     inkscape:window-maximized="1"
     inkscape:current-layer="layer1" /><defs
     id="defs1"><clipPath
       clipPathUnits="userSpaceOnUse"
       id="clipPath97"><path
         id="path98"
         style="fill:#ff0000;fill-opacity:1;fill-rule:nonzero;stroke:none;stroke-width:0.264583"
         d="m 4.9102947,-1.9414836 c 0.24595,1.52922702 0.4844989,3.0641425 0.7270874,4.6369263 0.5106231,3.7441918 1.0311442,7.4866703 1.6123047,11.2210203 0.8194352,4.940799 1.3177911,9.922817 1.663981,14.916403 0.2738395,4.292269 0.2248212,8.593121 0.5074626,12.882417 0.3290557,4.669983 0.5518923,9.346186 0.7177856,14.024467 0.0084,2.64e-4 0.01789,0.0029 0.02946,0.0083 0.02002,0.0093 0.214663,1.990188 0.229443,2.139405 0.217045,2.190662 0.390042,4.381322 0.542602,6.577375 0.282743,4.021058 0.483095,8.059147 0.900204,12.069548 0.06609,0.653182 0.132387,1.305872 0.198437,1.959054 0.159966,1.581931 0.294726,2.891293 0.443901,4.476729 0.0704,0.74817 0.126332,1.497901 0.204122,2.245341 0.0095,0.09118 0.04068,0.329285 0.05633,0.350367 l 5.29e-4,5.29e-4 5.29e-4,5.29e-4 h 5.3e-4 l 5.29e-4,5.3e-4 5.29e-4,-5.3e-4 h 5.29e-4 v -5.29e-4 l 5.29e-4,-5.29e-4 5.03e-4,-5.29e-4 c 0.0014,-0.0032 0.0028,-0.01021 0.0036,-0.02066 0.01583,-0.206611 -0.02793,-0.41389 -0.04186,-0.620633 0.845181,4.306295 1.336842,8.667774 1.988509,13.004374 0.507399,3.789749 0.948156,7.581059 1.483113,11.365709 0.297609,3.26028 0.751488,6.5328 1.208195,9.12813 0.98795,5.61875 1.560213,11.3031 2.120801,16.97777 0.640137,6.73825 0.879028,13.50426 1.061434,20.2675 0.125395,5.10519 0.173803,10.21197 0.207223,15.31845 0.02475,4.34423 0.02981,8.68851 0.03411,13.03279 -0.101482,4.26586 0.213734,8.52009 0.422713,12.77855 0.242375,4.69015 0.390386,9.38412 0.489376,14.07924 0.01766,-0.26472 0.02465,-0.40465 0.03101,-0.41806 v -5.3e-4 h 5.3e-4 v -5.3e-4 h 5.29e-4 l 5.29e-4,5.3e-4 5.29e-4,5.3e-4 c 0.01066,0.0235 0.02303,0.40151 0.08527,1.13843 0.172811,2.04609 0.295173,4.09577 0.464571,6.14175 0.0013,0.0161 0.0023,0.0243 0.0031,0.0258 h 5.29e-4 v -5.3e-4 c 0.0041,-0.0212 -0.0014,-0.30514 -5.29e-4,-0.41186 0.588766,4.99684 0.934913,10.01634 1.207678,15.03887 0.223326,4.31965 0.2992,8.64479 0.3545,12.96924 0.04399,4.28913 0.0508,8.57864 0.0584,12.86795 0.0063,4.37361 0.0076,8.74702 0.0088,13.12063 9.79e-4,4.86677 0.0014,9.73389 0.0016,14.60066 -0.0089,4.19751 -0.0582,8.38978 0.149345,12.58062 5.596863,-0.13515 11.194002,-0.25064 16.791741,-0.35139 14.818305,-0.24654 29.638776,-0.32692 44.458784,-0.38603 17.047548,-0.0647 34.092488,-0.42719 51.138478,-0.6568 19.53705,-0.4727 39.06715,-1.18181 58.60522,-1.63658 2.69835,-0.0262 5.39697,-0.0559 8.0951,-0.0889 0.0915,-1.5358 0.20577,-3.07062 0.33126,-4.60489 0.1996,-3.71792 0.71797,-7.40706 1.04128,-11.11403 0.2009,-2.33016 0.31881,-4.66574 0.3855,-7.0032 0.0208,-4.52232 0.41909,-9.02972 0.65939,-13.54284 0.2177,-4.30735 0.31595,-8.61918 0.38965,-12.93099 0.0637,-3.94127 0.0833,-7.8829 0.0982,-11.8246 0.0123,-3.98859 0.0156,-7.9776 0.0186,-11.9662 0.002,-3.395 0.002,-6.78991 0.003,-10.18491 2.6e-4,-3.51216 5.3e-4,-7.02414 5.3e-4,-10.5363 5e-5,-5.30649 -1e-5,-10.61295 0,-15.91944 1e-5,-6.22336 0,-12.44683 0,-18.67018 -0.10613,-5.97762 0.0995,-11.94564 0.43563,-17.9126 0.21173,-5.48641 0.55264,-10.96427 0.90072,-16.44345 0.24615,-4.14637 0.4255,-8.29643 0.55965,-12.44781 -0.0301,-0.16914 -0.06,-0.33812 -0.0889,-0.50747 -0.0933,-0.54732 -0.18377,-1.09073 -0.26562,-1.5906 -1.32727,-5.25083 -2.22076,-10.60498 -3.03495,-15.95613 -0.84353,-5.409432 -1.18015,-10.873535 -1.38286,-16.338536 -0.1507,-4.870836 -0.18171,-9.744442 -0.20981,-14.617197 -0.021,-4.109609 -0.027,-8.219308 -0.031,-12.328962 -0.006,-3.558809 0.0185,-7.579865 -0.0475,-10.817428 -0.3882,-4.594246 -0.56505,-9.201629 -0.70176,-13.808978 -0.27675,-10.271455 -0.14125,-20.543616 0.0473,-30.8146363 C 182.34864,3.3904198 162.40995,3.1634599 142.47141,2.8825113 118.80376,2.6530795 95.141931,2.3961823 71.486593,1.5725138 49.276439,0.7554818 27.092963,-0.59545453 4.9102947,-1.9414836 Z M 208.0612,118.16591 l -0.03,0.8661 c 0.005,0.0222 0.0103,0.0436 0.015,0.0646 0.0137,-0.31031 0.0254,-0.62049 0.015,-0.9307 z m -0.15813,0.62787 c 0.0147,0.16304 0.064,0.63705 0.11266,1.12448 0.003,-0.0809 0.005,-0.16148 0.008,-0.24236 0.003,-0.13261 0.009,-0.26529 0.0145,-0.39791 -0.004,-0.0156 -0.009,-0.0314 -0.0134,-0.0475 l -0.008,0.23564 c -0.005,0.006 -0.014,0.022 -0.0191,0.0274 l -5.3e-4,5.3e-4 -5.3e-4,5.3e-4 -5.3e-4,5.3e-4 h -5.2e-4 -5.3e-4 -5.3e-4 -5.3e-4 v -5.3e-4 l -5.3e-4,-5.3e-4 v -5.3e-4 c 10e-6,-2.6e-4 10e-6,-7.9e-4 0,-0.001 -0.0409,-0.34474 -0.0666,-0.55634 -0.0806,-0.66559 -0.003,-0.0111 -0.006,-0.0219 -0.009,-0.0331 z" /></clipPath></defs><g
     inkscape:label="Layer 1"
     inkscape:groupmode="layer"
     id="layer1"><path
       style="fill:#000000;stroke-width:0.264583"
       d="m 157.18274,230.56938 -0.52047,-87.95988 c 0,0 -5.7252,-74.427585 -47.36302,-81.193727 0,0 -32.269298,-5.7252 -48.924423,74.427587 l -0.520472,94.20555 c 0,0 7.807089,34.87167 44.240175,40.07639 0,0 42.67876,0.52047 53.08821,-39.55592 z"
       id="path99" /></g></svg>
